<?xml version="1.0" encoding="UTF-8"?>
<svg version="1.1" xmlns="http://www.w3.org/2000/svg" width="1000" height="1000">
<path d="M0 0 C3.25207092 1.41738489 5.31361067 3.12526412 7.75 5.6875 C10.3499799 8.35930255 12.97229841 10.89803704 15.8125 13.3125 C23.0393377 19.54351361 29.74685824 26.3922469 35.93359375 33.65234375 C38.23943607 36.27202472 40.62352034 38.80651441 43.01855469 41.34448242 C49.31288708 48.01710386 55.27801439 54.82588023 61 62 C61.99145868 63.20219862 62.98509829 64.40260067 63.98046875 65.6015625 C100.67906783 109.939212 129.67078291 160.82074193 149 215 C149.3103418 215.85319824 149.62068359 216.70639648 149.94042969 217.58544922 C165.59422958 260.81690856 174.03741903 309.51993934 174.203125 355.4609375 C174.20882507 356.72676666 174.21452515 357.99259583 174.22039795 359.29678345 C174.22979724 361.9710038 174.23671803 364.64511353 174.24023438 367.31933594 C174.24668958 371.30160016 174.28084859 375.28348193 174.3125 379.265625 C174.40801297 402.35937404 172.74530716 425.22881931 168.75 448 C168.54020508 449.21816406 168.33041016 450.43632813 168.11425781 451.69140625 C159.794323 498.51355024 144.8608528 543.58663822 123.09521484 585.86279297 C121.91079098 588.17408287 120.74696989 590.49523966 119.58203125 592.81640625 C109.56721398 612.5670135 97.80547722 631.19995485 84.54541016 648.92822266 C83.00932174 650.98750327 81.49319036 653.06023163 79.98046875 655.13671875 C73.10944824 664.51139542 65.73579845 673.32985073 58 682 C57.23171875 682.86882813 56.4634375 683.73765625 55.671875 684.6328125 C53.46722336 687.10692157 51.23910595 689.5570138 49 692 C48.46729492 692.58313965 47.93458984 693.1662793 47.38574219 693.76708984 C34.95004473 707.35296915 34.95004473 707.35296915 28.7109375 712.5390625 C26.92541819 714.06368401 25.3164164 715.68490364 23.6875 717.375 C20.00605974 721.12322376 15.95867371 724.34130283 11.8671875 727.62890625 C9.10383043 729.91413478 6.49021478 732.29773933 3.875 734.75 C-3.33670043 741.36839742 -11.15025857 747.16589376 -19 753 C-19.72106934 753.54060059 -20.44213867 754.08120117 -21.18505859 754.63818359 C-33.02362389 763.4938033 -45.29958601 771.43888879 -58 779 C-58.83337891 779.49854492 -59.66675781 779.99708984 -60.52539062 780.51074219 C-122.03671036 817.10394691 -190.17646943 838.14852352 -260.4453125 849.65234375 C-261.19287308 849.77487015 -261.94043365 849.89739655 -262.71064758 850.02363586 C-270.92815905 851.34639694 -278.59764857 852 -287 852 C-287 781.71 -287 711.42 -287 639 C-276.77 637.02 -266.54 635.04 -256 633 C-211.53770403 621.32303338 -171.24610274 600.7831302 -137 570 C-136.46648926 569.52288574 -135.93297852 569.04577148 -135.38330078 568.55419922 C-126.02977637 560.16660553 -117.10186804 551.63218096 -109.2421875 541.80078125 C-107.79099179 539.98805072 -106.31818225 538.192327 -104.8203125 536.41796875 C-94.54300138 524.22051943 -85.88765535 510.83966804 -78 497 C-77.63696777 496.37109863 -77.27393555 495.74219727 -76.89990234 495.09423828 C-43.86419195 437.37282282 -36.45164274 366.13852409 -53.12011719 302.21386719 C-57.60080248 285.84767929 -63.54106454 270.22991004 -71 255 C-71.41088867 254.15373047 -71.82177734 253.30746094 -72.24511719 252.43554688 C-81.67333001 233.20458566 -93.3333038 215.47852827 -107 199 C-107.44456543 198.4539209 -107.88913086 197.9078418 -108.34716797 197.34521484 C-122.70080132 179.57982705 -122.70080132 179.57982705 -140 165 C-139.40505128 161.19407807 -137.70449071 159.10332747 -135.25 156.1875 C-134.44046875 155.22199219 -133.6309375 154.25648438 -132.796875 153.26171875 C-129.160336 149.00465921 -125.48613754 144.77998728 -121.80859375 140.55834961 C-117.08871102 135.13172799 -112.52132994 129.59305259 -108 124 C-106.50114184 122.16573302 -105.00112723 120.33241048 -103.5 118.5 C-101.30774854 115.8210008 -99.11580532 113.14175792 -96.92578125 110.4609375 C-94.61944745 107.63876934 -92.31072763 104.81857069 -90 102 C-89.47744629 101.36255859 -88.95489258 100.72511719 -88.41650391 100.06835938 C-81.94133855 92.17461309 -75.44439844 84.30336627 -68.828125 76.52734375 C-66.05161347 73.25941425 -63.32460393 69.95663461 -60.625 66.625 C-52.46419972 56.61013598 -43.91396325 46.92593585 -35.1875 37.40234375 C-33.3033966 35.33319448 -31.45545253 33.24146074 -29.625 31.125 C-20.19255464 20.30737035 -10.2129011 10.07693053 0 0 Z M-1 56 C-2.76657522 57.89944584 -4.42117093 59.80891574 -6.0625 61.8125 C-6.55492187 62.40417969 -7.04734375 62.99585938 -7.5546875 63.60546875 C-9.04338594 65.3980617 -10.52330507 67.19751147 -12 69 C-12.77214844 69.94230469 -13.54429687 70.88460937 -14.33984375 71.85546875 C-15.79409034 73.63580318 -17.24719429 75.4170715 -18.69921875 77.19921875 C-25.9804812 86.06282686 -33.47958845 94.74780067 -40.953125 103.44921875 C-43.0096645 105.84388299 -45.06137314 108.24256169 -47.109375 110.64453125 C-51.57771331 115.88064468 -56.05417904 121.09567332 -60.6875 126.1875 C-63.6791816 129.47942205 -66.52524423 132.84591307 -69.3125 136.3125 C-73.31653362 141.26987496 -77.56021325 145.94914137 -81.92700195 150.58520508 C-83.29750958 152.04485141 -84.64953617 153.52178959 -86 155 C-86.65226563 155.68191406 -87.30453125 156.36382812 -87.9765625 157.06640625 C-89.28263572 159.02245358 -89.28263572 159.02245358 -88.41796875 161.49609375 C-86.94075546 164.10461639 -85.41006273 165.9249837 -83.3125 168.0625 C-59.67870213 193.67211377 -41.68080315 225.71333017 -29 258 C-28.65630371 258.8677002 -28.31260742 259.73540039 -27.95849609 260.62939453 C-18.65770282 284.36802177 -12.77664984 308.8119304 -9 334 C-8.86722656 334.87269531 -8.73445312 335.74539063 -8.59765625 336.64453125 C-4.70634309 363.70883287 -5.54245393 393.10555376 -10 420 C-10.16628906 421.02125977 -10.33257813 422.04251953 -10.50390625 423.09472656 C-19.84268772 478.55671204 -44.96263074 528.99259118 -82 571 C-82.45665039 571.51981445 -82.91330078 572.03962891 -83.38378906 572.57519531 C-95.18799811 585.92158038 -108.13463856 598.00481273 -122.3515625 608.74121094 C-123.95081696 609.96244257 -125.52285877 611.21905614 -127.09375 612.4765625 C-144.99593153 626.71693417 -165.30121618 638.0925306 -185.88525391 647.98193359 C-187.2997208 648.66287644 -188.71086491 649.35076326 -190.11865234 650.04541016 C-205.36923931 657.53542446 -221.34901906 662.67596001 -237.48583984 667.86621094 C-241.66723987 669.21527455 -245.83511963 670.6008967 -250 672 C-251.26380511 680.91152868 -251.22690395 689.83878189 -251.31640625 698.8203125 C-251.33711634 700.5872587 -251.35816039 702.35420102 -251.3795166 704.12113953 C-251.43499264 708.82150243 -251.48448623 713.52190979 -251.53242874 718.22235489 C-251.56248492 721.12354406 -251.5942829 724.02470887 -251.62667847 726.9258728 C-251.94644737 755.61771557 -252.1535437 784.30622621 -252 813 C-242.40158132 811.58893869 -233.02641818 809.47789629 -223.625 807.125 C-222.85454346 806.93258728 -222.08408691 806.74017456 -221.2902832 806.54193115 C-166.86740712 792.855598 -114.95424692 772.00318263 -68 741 C-67.30712891 740.54270508 -66.61425781 740.08541016 -65.90039062 739.61425781 C-48.58219528 728.10470119 -31.9323473 715.36897599 -16.58203125 701.3359375 C-15.19393831 700.08014388 -13.80009624 698.82996623 -12.37426758 697.6171875 C-6.21856159 692.3608829 -0.50221059 686.68832915 5.2175293 680.96777344 C6.92543056 679.26205402 8.64118045 677.56450973 10.35742188 675.8671875 C16.31210588 669.94219141 21.91348372 663.94254973 27.12426758 657.34326172 C28.91994826 655.10000477 30.79744965 652.98194943 32.75 650.875 C100.88355032 574.79702385 136.43768783 468.97782432 136.43252563 347.49160767 C130.92314424 250.33570502 92.59520688 157.80135668 7.9375 62.75 C6.95366333 61.74658569 6.95366333 61.74658569 5.94995117 60.72290039 C5.33611572 60.10793701 4.72228027 59.49297363 4.08984375 58.859375 C3.54191162 58.30733398 2.99397949 57.75529297 2.42944336 57.18652344 C1.0531348 55.78710111 1.0531348 55.78710111 -1 56 Z " fill="#202E39" transform="translate(826,148)"/>
<path d="M0 0 C3.09568015 1.82954091 5.32415014 4.39050756 7.68359375 7.0546875 C8.48023438 7.93543945 8.48023438 7.93543945 9.29296875 8.83398438 C13.22927163 13.22082794 16.95468128 17.75992833 20.64453125 22.35546875 C24.33691559 26.79001008 28.28900095 30.97556174 32.22265625 35.1953125 C36.52714889 39.81322511 40.6392178 44.58730357 44.734375 49.390625 C45.75892467 50.59130791 46.78367021 51.79182371 47.80859375 52.9921875 C48.32591064 53.59836914 48.84322754 54.20455078 49.3762207 54.82910156 C52.58111604 58.5703957 55.84818653 62.24084133 59.18359375 65.8671875 C62.35440117 69.31984446 65.37644406 72.83499716 68.30859375 76.4921875 C72.3835782 81.54805317 76.74841369 86.26155973 81.19628906 90.98535156 C85.2352512 95.29814164 88.98541952 99.77789261 92.6796875 104.390625 C96.35595872 108.81702913 100.30035747 112.98769862 104.22265625 117.1953125 C108.52714889 121.81322511 112.6392178 126.58730357 116.734375 131.390625 C117.75891321 132.59131769 118.7836588 133.79183346 119.80859375 134.9921875 C120.32228516 135.59401855 120.83597656 136.19584961 121.36523438 136.81591797 C125.42950671 141.5596938 129.59902227 146.19018852 133.83984375 150.77734375 C135.99167677 153.17476641 138.00836205 155.64532959 139.99609375 158.1796875 C138.5560245 161.49614066 136.77154177 163.61686174 134.1796875 166.12109375 C133.42002686 166.86367432 132.66036621 167.60625488 131.87768555 168.37133789 C131.07113525 169.15371826 130.26458496 169.93609863 129.43359375 170.7421875 C122.80528974 177.27961279 116.63872433 183.76681988 110.99609375 191.1796875 C109.98559537 192.46320131 108.97376816 193.74566956 107.9609375 195.02734375 C61.24860894 254.56862788 41.10357202 327.02892667 49.99609375 402.1796875 C51.89577236 416.42841733 54.85460695 430.41635935 58.99609375 444.1796875 C59.22071289 444.93685059 59.44533203 445.69401367 59.67675781 446.47412109 C70.41052005 481.8029783 90.62728619 515.47809839 115.99609375 542.1796875 C117.14893223 543.50696865 118.29523442 544.83996744 119.43359375 546.1796875 C126.39884564 554.15628743 133.92702265 561.37091226 142.21875 567.953125 C144.04917049 569.42055071 145.85016534 570.9255682 147.6171875 572.46875 C183.68304816 603.87930099 229.75793653 622.92571636 276.171875 632.35546875 C277.51978818 632.63145278 278.86764826 632.90769631 280.2154541 633.1842041 C283.47515679 633.8519068 286.73536647 634.51700984 289.99609375 635.1796875 C290.02767209 649.76301037 290.04740059 664.34633479 290.05859375 678.9296875 C290.05944977 680.03683987 290.06030579 681.14399223 290.06118774 682.28469467 C290.0870905 720.35625638 289.87406585 758.42256484 289.49609375 796.4921875 C289.47815702 798.29966713 289.47815702 798.29966713 289.45985794 800.1436615 C289.31345245 814.82242635 289.1590124 829.50109688 288.99609375 844.1796875 C280.34283034 844.259486 272.07149131 843.79850114 263.49609375 842.6171875 C261.56697144 842.35264771 261.56697144 842.35264771 259.59887695 842.08276367 C176.13089004 830.3169424 95.10880542 799.20729987 26.99609375 749.1796875 C26.31611328 748.6837207 25.63613281 748.18775391 24.93554688 747.67675781 C16.70331694 741.65911368 8.73557924 735.42369984 1.015625 728.76171875 C-1.82009883 726.33686306 -4.71046437 724.0037084 -7.62890625 721.6796875 C-12.57421748 717.66297183 -17.0179529 713.26585248 -21.46484375 708.71875 C-23.51943698 706.66415677 -25.58427826 704.78187881 -27.81640625 702.9296875 C-33.76126258 697.84622872 -38.8999919 691.90534736 -44.18261719 686.15380859 C-45.93735718 684.25182098 -47.70566964 682.36373341 -49.48046875 680.48046875 C-55.95647798 673.59865216 -62.11334962 666.5754971 -68.00390625 659.1796875 C-68.9230152 658.06259597 -69.84367465 656.9467789 -70.765625 655.83203125 C-78.81757235 646.03238473 -85.99205681 635.74161688 -93.00390625 625.1796875 C-93.72126953 624.10847656 -93.72126953 624.10847656 -94.453125 623.015625 C-134.59700023 562.9684839 -160.43271236 493.74208625 -170.00390625 422.1796875 C-170.1534375 421.15423828 -170.30296875 420.12878906 -170.45703125 419.07226562 C-173.12200388 400.31407463 -173.32134347 381.53315541 -173.37226868 362.61708069 C-173.37876649 360.65929642 -173.39067874 358.7015325 -173.40270996 356.74377441 C-173.74582901 284.88451416 -154.91729394 216.19131045 -123.00390625 152.1796875 C-122.57609863 151.32004395 -122.14829102 150.46040039 -121.70751953 149.57470703 C-105.93086292 118.12778142 -85.44006872 88.62601 -62.453125 62.03125 C-60.03089711 59.21111226 -57.70158894 56.33204143 -55.37890625 53.4296875 C-51.85935078 49.09937729 -48.09984032 45.1687676 -44.10546875 41.27734375 C-42.21727219 39.39265685 -40.47777805 37.46351654 -38.75390625 35.4296875 C-31.86127259 27.41238168 -24.20431056 19.81606127 -16.109375 13.015625 C-14.34800506 11.47973656 -12.66921695 9.90686232 -10.9921875 8.28125 C-10.45795166 7.77029785 -9.92371582 7.2593457 -9.37329102 6.73291016 C-8.31080978 5.713838 -7.25750306 4.68509514 -6.21459961 3.64599609 C-2.6281113 0.2356591 -2.6281113 0.2356591 0 0 Z M-7.140625 54.0859375 C-12.28042901 59.3123232 -17.25102055 64.60145039 -22.00390625 70.1796875 C-22.8948625 71.19616427 -23.78687964 72.21171168 -24.6796875 73.2265625 C-32.25510078 81.88256778 -39.24244786 90.87743949 -46.00390625 100.1796875 C-46.49358887 100.84838867 -46.98327148 101.51708984 -47.48779297 102.20605469 C-97.24840994 170.3582482 -125.70316881 251.41907738 -133.00390625 335.1796875 C-133.07593262 335.9934082 -133.14795898 336.80712891 -133.22216797 337.64550781 C-140.8323553 428.52365995 -115.89681727 522.50165481 -67.00390625 599.1796875 C-66.44413086 600.05898926 -66.44413086 600.05898926 -65.87304688 600.95605469 C-52.08593324 622.4386023 -36.19964962 642.34903474 -19.00390625 661.1796875 C-18.15183594 662.12457031 -17.29976563 663.06945312 -16.421875 664.04296875 C-8.05756754 673.2906703 0.51793848 682.40138947 10.02734375 690.48828125 C12.27390882 692.41836592 14.44193279 694.42386889 16.62109375 696.4296875 C22.21945848 701.47418053 28.1027902 706.09635822 34.0703125 710.69091797 C36.03361403 712.20869341 37.98405738 713.74194023 39.93359375 715.27734375 C94.36757383 757.88238869 181.80205399 808.1796875 253.99609375 808.1796875 C254.06454866 779.2750136 253.90967186 750.37519106 253.6237793 721.47192383 C253.56752985 715.75958398 253.5178055 710.04720482 253.46937656 704.33479404 C253.43062258 699.88688282 253.38751814 695.43902173 253.343153 690.99116325 C253.32281907 688.87997856 253.3040917 686.76877775 253.28701973 684.65756416 C253.26308306 681.75023944 253.23305031 678.84304071 253.20141602 675.93579102 C253.19566055 675.07232056 253.18990509 674.2088501 253.18397522 673.31921387 C253.24427902 669.11509 253.24427902 669.11509 251.99609375 665.1796875 C249.44190731 664.1751331 249.44190731 664.1751331 246.29296875 663.296875 C245.09534912 662.93851563 243.89772949 662.58015625 242.66381836 662.2109375 C241.70546585 661.92863281 241.70546585 661.92863281 240.72775269 661.640625 C227.57737502 657.75231744 214.67419022 653.42395914 201.99609375 648.1796875 C201.18446777 647.84533691 200.3728418 647.51098633 199.53662109 647.16650391 C180.37010048 639.16369417 162.16258534 628.85628018 144.99609375 617.1796875 C144.16537354 616.61483643 144.16537354 616.61483643 143.31787109 616.03857422 C117.78677726 598.55540413 92.68311092 576.91810127 73.99609375 552.1796875 C73.22910156 551.21804688 72.46210938 550.25640625 71.671875 549.265625 C22.6728569 487.62827966 0.73428959 408.25373682 8.99609375 330.1796875 C16.63493286 265.6236219 46.04514475 206.37866242 88.99609375 158.1796875 C85.09408642 152.69578531 80.81956897 147.73128176 76.23706055 142.81542969 C73.19233608 139.53199389 70.30313928 136.17211578 67.49609375 132.6796875 C64.29677869 128.70339593 60.97026525 124.91298228 57.49609375 121.1796875 C53.22691223 116.59208637 49.23850858 111.84526022 45.30859375 106.9609375 C42.35301229 103.40625169 39.22433615 100.03623385 36.07543945 96.65356445 C33.14459576 93.48617328 30.37581729 90.23871049 27.68359375 86.8671875 C22.83518343 80.83943412 17.54336336 75.2664218 12.2421875 69.640625 C8.19637034 65.34375199 4.24056182 60.97320555 0.54296875 56.37109375 C-0.60358841 54.94448671 -1.79868073 53.5570881 -3.00390625 52.1796875 C-5.2324136 51.95778166 -5.2324136 51.95778166 -7.140625 54.0859375 Z " fill="#202E39" transform="translate(173.00390625,153.8203125)"/>
<path d="M0 0 C3.00653632 1.23937156 4.77504764 2.77136957 7.1171875 5.02734375 C10.50127485 8.20272087 13.9134313 11.21341762 17.5546875 14.08984375 C23.41749684 18.82518976 28.85451045 23.97704245 34.30297852 29.17993164 C38.30205688 32.99464699 42.36712823 36.69704122 46.54321289 40.31689453 C49.72022648 43.1050891 52.79021687 46.00476815 55.8671875 48.90234375 C64.29656556 56.79627469 72.78129668 64.50614469 81.765625 71.76953125 C84.45344917 73.99526531 87.04065769 76.29916637 89.6171875 78.65234375 C94.05768415 82.70145047 98.68898076 86.41913772 103.4921875 90.02734375 C113.72210092 85.30033592 123.83049958 80.39972623 133.8046875 75.15234375 C150.46980993 66.38774442 167.32446506 58.05511171 184.328125 49.96875 C189.29683481 47.60365702 194.25135609 45.21028331 199.20233154 42.80831909 C210.94803909 37.11060916 222.718924 31.47338804 234.5546875 25.96484375 C235.67705811 25.44100098 236.79942871 24.9171582 237.95581055 24.37744141 C245.06493932 21.08303204 252.23701377 17.9860573 259.4921875 15.02734375 C258.83942531 21.53204157 256.93123836 27.48207299 254.94140625 33.69140625 C254.57559952 34.84715652 254.20979279 36.0029068 253.832901 37.19367981 C252.83076527 40.35406633 251.82342741 43.51269382 250.81315613 46.67048264 C250.17605739 48.66370086 249.54099761 50.65755723 248.90661621 52.65164185 C236.1995564 92.5910519 223.07552265 132.39473651 209.78100586 172.14208984 C205.44193512 185.12381329 201.19274669 198.13311366 196.9737854 211.15429688 C188.95643531 235.88183363 180.68890278 260.52695981 172.4465332 285.18017578 C170.7922291 290.12828303 169.1411734 295.07746175 167.4921875 300.02734375 C162.09097154 297.16391325 156.76804545 294.22356332 151.57446289 290.99584961 C87.92736908 251.6696897 7.56479235 236.48644269 -65.59375 253.53125 C-99.34279885 261.87554739 -130.39595705 276.6140296 -161.20507812 292.43798828 C-166.29404091 295.02734375 -166.29404091 295.02734375 -168.5078125 295.02734375 C-168.67273193 294.48469376 -168.83765137 293.94204376 -169.00756836 293.38294983 C-178.23440166 263.0419387 -187.73095595 232.80770522 -197.65898132 202.68885803 C-199.72872658 196.4074682 -201.78113449 190.12076554 -203.81640625 183.828125 C-209.09151247 167.52838118 -214.42089834 151.2486303 -219.86328125 135.00390625 C-220.34456153 133.56703959 -220.82583385 132.13017027 -221.30709839 130.69329834 C-221.54829596 129.97319454 -221.78949352 129.25309074 -222.03800011 128.51116562 C-230.80976766 102.32184156 -239.49743227 76.11329629 -247.8203125 49.77734375 C-248.20280151 48.57084167 -248.58529053 47.3643396 -248.97937012 46.12127686 C-250.05230544 42.73209786 -251.11928007 39.34111387 -252.18359375 35.94921875 C-252.49394058 34.9680307 -252.80428741 33.98684265 -253.1240387 32.97592163 C-254.87260434 27.36559621 -256.31353455 21.78196007 -257.5078125 16.02734375 C-253.33918197 17.33570364 -249.48328805 18.90418004 -245.5625 20.828125 C-244.41740967 21.3864502 -243.27231934 21.94477539 -242.0925293 22.52001953 C-241.48887543 22.81620178 -240.88522156 23.11238403 -240.26327515 23.4175415 C-237.01960527 25.00845 -233.76995197 26.58700184 -230.51953125 28.1640625 C-229.85240616 28.4878186 -229.18528107 28.81157471 -228.49794006 29.1451416 C-221.76993449 32.40076097 -214.98630359 35.53028383 -208.1953125 38.65234375 C-198.43485499 43.14926929 -188.78541277 47.82325772 -179.19360352 52.66870117 C-172.87913437 55.85533078 -166.52824531 58.94441831 -160.1328125 61.96484375 C-152.32220761 65.65552212 -144.58317622 69.4754291 -136.86328125 73.3515625 C-135.91908325 73.82542892 -134.97488525 74.29929535 -134.0020752 74.78752136 C-129.20670705 77.19578032 -124.41443031 79.60999469 -119.62548828 82.03100586 C-117.84282064 82.92831643 -116.06010775 83.82553713 -114.27734375 84.72265625 C-113.45227829 85.14193893 -112.62721283 85.56122162 -111.77714539 85.99320984 C-111.00997696 86.37846329 -110.24280853 86.76371674 -109.45239258 87.16064453 C-108.78452225 87.49830841 -108.11665192 87.83597229 -107.42854309 88.18386841 C-105.40339009 89.07320012 -103.70962056 89.75883603 -101.5078125 90.02734375 C-99.02719547 88.21411632 -96.87375333 86.41761346 -94.6328125 84.33984375 C-93.28830387 83.13220718 -91.94323882 81.92518984 -90.59765625 80.71875 C-89.91687012 80.1014502 -89.23608398 79.48415039 -88.53466797 78.84814453 C-85.47263475 76.0974045 -82.33415231 73.43962851 -79.1953125 70.77734375 C-74.30464568 66.60148764 -69.48920578 62.35319414 -64.7265625 58.03125 C-62.71472857 56.21422393 -60.68120816 54.42789983 -58.6328125 52.65234375 C-53.68752778 48.34259763 -48.8753786 43.88784306 -44.05029297 39.44482422 C-42.59281267 38.10545565 -41.1305354 36.7713125 -39.66796875 35.4375 C-33.7193338 30.01110461 -27.81832798 24.5355155 -21.9453125 19.02734375 C-21.21836182 18.34784668 -20.49141113 17.66834961 -19.74243164 16.96826172 C-16.46662745 13.88902799 -13.23940737 10.79281173 -10.15234375 7.5234375 C-9.65613525 7.00201172 -9.15992676 6.48058594 -8.64868164 5.94335938 C-7.3533607 4.56641298 -6.07816399 3.17061155 -4.8046875 1.7734375 C-2.5078125 0.02734375 -2.5078125 0.02734375 0 0 Z M-3.8203125 55.77734375 C-4.52800781 56.4115625 -5.23570312 57.04578125 -5.96484375 57.69921875 C-9.56253259 60.99295538 -13.14622736 64.30166201 -16.72338867 67.61767578 C-20.25937272 70.8915261 -23.83958154 74.1012368 -27.484375 77.25390625 C-30.02282421 79.47872467 -32.51423026 81.75237694 -35.0078125 84.02734375 C-38.79444248 87.48062528 -42.6125757 90.88833426 -46.48046875 94.25 C-48.84270423 96.32093862 -51.17577103 98.42247223 -53.5078125 100.52734375 C-57.12457595 103.79125223 -60.77170858 107.01525324 -64.4453125 110.21484375 C-66.81745679 112.29945539 -69.16337315 114.41163019 -71.5078125 116.52734375 C-75.16404892 119.82578334 -78.83398471 123.10426165 -82.56640625 126.31640625 C-83.94205344 127.52874723 -85.2857645 128.77777044 -86.60546875 130.05078125 C-87.29511719 130.70304687 -87.98476563 131.3553125 -88.6953125 132.02734375 C-89.30761719 132.62546875 -89.91992188 133.22359375 -90.55078125 133.83984375 C-92.5078125 135.02734375 -92.5078125 135.02734375 -94.81274414 134.74536133 C-97.61303444 133.99931062 -99.98326086 132.9979822 -102.5859375 131.7265625 C-103.56852539 131.25041504 -104.55111328 130.77426758 -105.56347656 130.28369141 C-106.61760742 129.76597168 -107.67173828 129.24825195 -108.7578125 128.71484375 C-111.02856861 127.61182017 -113.29940409 126.50895998 -115.5703125 125.40625 C-116.72789062 124.84180176 -117.88546875 124.27735352 -119.078125 123.69580078 C-124.29378387 121.15851343 -129.52619486 118.6565099 -134.7578125 116.15234375 C-142.14955279 112.60769771 -149.53478705 109.04984373 -156.91447449 105.48019409 C-171.28254842 98.51959561 -171.28254842 98.51959561 -185.6953125 91.65234375 C-186.80261719 91.12898438 -187.90992188 90.605625 -189.05078125 90.06640625 C-191.37020418 88.89751152 -191.37020418 88.89751152 -193.5078125 89.02734375 C-192.29543085 95.82749022 -190.61232977 102.28182521 -188.41015625 108.82421875 C-188.10414993 109.75043533 -187.79814362 110.67665192 -187.48286438 111.63093567 C-186.82126226 113.63282897 -186.15726082 115.63393063 -185.49108887 117.63430786 C-183.67326899 123.09768732 -181.87795828 128.56845466 -180.08203125 134.0390625 C-179.51900803 135.75288368 -179.51900803 135.75288368 -178.9446106 137.50132751 C-174.79147635 150.16876844 -170.75822839 162.87345698 -166.7578125 175.58984375 C-166.22764526 177.27469879 -166.22764526 177.27469879 -165.68676758 178.99359131 C-159.10175511 199.94751813 -152.73193906 220.96359874 -146.5078125 242.02734375 C-145.88140869 241.76630859 -145.25500488 241.50527344 -144.60961914 241.23632812 C-60.61251842 206.43371986 35.2375038 198.81534739 120.83349609 233.37646484 C126.68102897 235.82759398 132.47877435 238.38143048 138.24169922 241.02514648 C140.63496344 242.09092535 143.0543084 243.06858799 145.4921875 244.02734375 C151.08028134 227.71539859 156.31348525 211.30486488 161.4296875 194.83984375 C167.1898153 176.30926074 173.05161187 157.81338358 178.9921875 139.33984375 C179.55448563 137.58917099 179.55448563 137.58917099 180.12814331 135.8031311 C181.21674433 132.41514516 182.30722798 129.02777161 183.3984375 125.640625 C183.74213882 124.57153397 184.08584015 123.50244293 184.43995667 122.4009552 C186.12051161 117.1933541 187.83331728 112.00021972 189.61328125 106.82568359 C189.94598022 105.85293991 190.2786792 104.88019623 190.62145996 103.87797546 C191.24765783 102.05506878 191.88142658 100.23473878 192.52404785 98.41755676 C192.79906128 97.61613754 193.07407471 96.81471832 193.35742188 95.98901367 C193.60182007 95.29241135 193.84621826 94.59580902 194.09802246 93.87809753 C194.70170412 91.81105155 194.70170412 91.81105155 193.4921875 89.02734375 C192.82501709 89.36354736 192.15784668 89.69975098 191.47045898 90.04614258 C178.93108387 96.35815307 166.37217135 102.61255106 153.69335938 108.64086914 C145.64753618 112.46785972 137.62275749 116.33710523 129.60525513 120.22299194 C128.18215567 120.91267286 126.75888377 121.60199809 125.3354187 122.29092407 C123.97800945 122.94794113 122.62084375 123.60546161 121.26393127 124.26350403 C119.94409151 124.90341502 118.62365457 125.54209592 117.30259705 126.17948914 C114.01550703 127.77197878 110.75573315 129.40133671 107.52392578 131.10351562 C106.88806046 131.43454285 106.25219513 131.76557007 105.59706116 132.10662842 C103.85489804 133.01734148 102.11970085 133.94134477 100.38500977 134.86621094 C97.4921875 136.02734375 97.4921875 136.02734375 95.28588867 135.86669922 C92.10225323 134.37692943 89.74236767 131.81839893 87.2421875 129.40234375 C86.07233066 128.29611725 84.90176112 127.19064393 83.73046875 126.0859375 C83.16924316 125.55339355 82.60801758 125.02084961 82.02978516 124.47216797 C80.20272203 122.75534365 78.32946935 121.10065592 76.4296875 119.46484375 C72.51622039 116.08089439 68.71683753 112.57605605 64.91162109 109.07177734 C62.15727653 106.53979551 59.3846754 104.03691574 56.5546875 101.58984375 C52.9626006 98.47770166 49.47668613 95.25860415 45.9921875 92.02734375 C41.8829011 88.21704195 37.74537456 84.4564592 33.50390625 80.79296875 C31.02606043 78.61823805 28.60639875 76.38395973 26.1796875 74.15234375 C21.60706686 69.97871909 16.89947223 66.02647558 12.078125 62.14453125 C8.97840903 59.60669733 6.00318516 56.94906926 3.05078125 54.2421875 C0.02022788 51.88002685 -1.32169317 53.53019146 -3.8203125 55.77734375 Z " fill="#28C0F1" transform="translate(502.5078125,-0.02734375)"/>
<path d="M0 0 C2.68416244 2.68416244 3.3736682 5.71480771 4.484375 9.25390625 C4.73163834 10.02620071 4.97890167 10.79849518 5.23365784 11.5941925 C6.07994004 14.2479761 6.91555084 16.90497313 7.75 19.5625 C8.04933441 20.51022278 8.34866882 21.45794556 8.65707397 22.43438721 C34.01666115 102.77441444 57.32171115 183.78989426 79.69058228 265.00737 C83.01052718 277.05873491 86.37273728 289.09806367 89.75057983 301.1333313 C90.60416091 304.17572388 91.45628882 307.21851928 92.30786133 310.26147461 C94.6369391 318.58256174 96.96997198 326.90241845 99.32473755 335.21627808 C100.28863227 338.62288278 101.24767407 342.03084159 102.20574951 345.43908691 C102.64480956 346.99615842 103.08617905 348.55258096 103.53009033 350.10827637 C104.12747099 352.20209585 104.71698291 354.29797895 105.3046875 356.39453125 C105.63452637 357.55831299 105.96436523 358.72209473 106.30419922 359.92114258 C106.94223162 362.74437997 107.14612985 365.12151138 107 368 C54.68569928 362.30309076 9.12436484 339.97218296 -29 304 C-29.8559375 303.19820312 -30.711875 302.39640625 -31.59375 301.5703125 C-38.47131542 294.932156 -44.31514786 287.65849328 -50 280 C-50.60158936 279.18958252 -50.60158936 279.18958252 -51.21533203 278.36279297 C-65.73716621 258.57580364 -75.80221209 236.70462585 -82 213 C-82.31839844 211.78441406 -82.63679688 210.56882812 -82.96484375 209.31640625 C-94.1694859 160.20551206 -84.81405959 108.47381032 -58.49169922 65.88696289 C-50.11052359 52.68125703 -40.77169677 40.33657779 -30 29 C-28.82619437 27.65201676 -27.65902568 26.29821229 -26.5 24.9375 C-18.5089848 15.76193431 -9.58205711 7.48598212 0 0 Z M-21 74 C-44.86087838 120.34074129 -54.69966903 165.97908528 -39.28076172 216.34960938 C-25.59759237 258.62721815 8.46290392 291.27640497 46.33984375 312.671875 C48.80268457 314.148896 48.80268457 314.148896 51 314 C49.78669722 307.47611292 48.28860565 301.12808123 46.41015625 294.765625 C45.87749049 292.92990685 45.34503092 291.09412886 44.81274414 289.25830078 C44.52916046 288.285401 44.24557678 287.31250122 43.95339966 286.31011963 C37.98666091 265.8151804 32.32433826 245.24777885 26.77740479 224.63647461 C16.50761495 186.48670487 5.97015034 148.43828063 -6.5 110.9375 C-6.78009918 110.09384888 -7.06019836 109.25019775 -7.3487854 108.38098145 C-11.21810813 96.77832608 -15.47563479 85.36263459 -20 74 C-20.33 74 -20.66 74 -21 74 Z " fill="#28C0F1" transform="translate(391,352)"/>
<path d="M0 0 C4.3974945 1.6344137 7.55810048 3.8694232 11.0625 6.9375 C11.90578857 7.6651355 11.90578857 7.6651355 12.76611328 8.4074707 C14.5195077 9.92863232 16.26149839 11.4618498 18 13 C18.54736816 13.48275391 19.09473633 13.96550781 19.65869141 14.46289062 C25.86732994 19.96578819 31.70967482 25.5928284 37 32 C37.74507812 32.85722656 38.49015625 33.71445312 39.2578125 34.59765625 C67.32406106 67.28295826 88.93059285 111.37987042 89.203125 155.20703125 C89.21018463 155.96560425 89.21724426 156.72417725 89.22451782 157.5057373 C89.44611129 188.30526129 89.44611129 188.30526129 86 203 C85.80132324 203.91426758 85.60264648 204.82853516 85.39794922 205.77050781 C75.62639904 250.55128983 51.41593982 289.87774281 15 318 C14.18885742 318.63373535 14.18885742 318.63373535 13.36132812 319.28027344 C3.1479959 327.21560364 -7.64906615 333.81958968 -19 340 C-19.68175293 340.37253906 -20.36350586 340.74507812 -21.06591797 341.12890625 C-45.72699833 354.43864542 -76.68991853 366 -105 366 C-101.61140816 350.5975699 -97.37686974 335.41946516 -93.17690277 320.22329712 C-92.55292997 317.9653696 -91.9298809 315.70718862 -91.3069458 313.44897461 C-75.15543264 254.92851047 -58.02851402 196.6893279 -40.85351562 138.46276855 C-36.97582168 125.3158485 -33.10683569 112.16638551 -29.2421875 99.015625 C-28.67973443 97.10190653 -28.11727514 95.18818989 -27.55480957 93.2744751 C-25.39756617 85.93456561 -23.24037522 78.59464075 -21.0838623 71.2545166 C-14.10132898 47.48942363 -7.07338923 23.73821369 0 0 Z M19 70 C15.4776789 82.45791303 11.95705639 94.91630562 8.4375 107.375 C8.1690414 108.32527195 7.90058281 109.2755439 7.62398911 110.25461197 C1.40616107 132.26505395 -4.80486787 154.27735286 -10.9765625 176.30078125 C-11.21512152 177.15199051 -11.45368053 178.00319977 -11.69946861 178.88020325 C-13.83405403 186.49718631 -15.96782258 194.11439759 -18.09890747 201.73236084 C-23.14838895 219.78219058 -28.22190384 237.82444665 -33.3789463 255.84388161 C-34.13576242 258.48888498 -34.8917184 261.13413263 -35.64738464 263.77946472 C-36.1396633 265.5024764 -36.63195746 267.22548364 -37.12426758 268.94848633 C-37.48461798 270.2097177 -37.48461798 270.2097177 -37.85224819 271.49642849 C-39.26613505 276.44211294 -40.68683571 281.38577822 -42.11259747 286.32805157 C-42.98155995 289.34536683 -43.84474849 292.36431149 -44.70641136 295.38371849 C-45.10712175 296.78288015 -45.51041078 298.18130613 -45.91640663 299.57894325 C-46.46776298 301.47781831 -47.00955823 303.37946191 -47.55078125 305.28125 C-48.00964722 306.87549805 -48.00964722 306.87549805 -48.4777832 308.50195312 C-49.26647824 310.98435533 -49.26647824 310.98435533 -48 313 C-32.64579983 303.65935602 -17.57638461 293.82971524 -4 282 C-3.49017578 281.55720703 -2.98035156 281.11441406 -2.45507812 280.65820312 C27.70094182 254.26716046 46.88256849 217.14414699 50 177 C52.00298872 140.73755837 43.97061219 98.64780481 20 70 C19.67 70 19.34 70 19 70 Z " fill="#28C0F1" transform="translate(607,354)"/>
</svg>
